{"title":"The.Blue.Room.[La.Chambre.Bleue].2014.DVDRip.x264.HORiZON-ArtSub","uid":11390383,"size":1726521280,"categoryP":"video","categoryS":"movies","magnet":"?xt=urn:btih:1d6a310709fa2e1fa4af61220989fd3e027de58e&amp;dn=The.Blue.Room.%5BLa.Chambre.Bleue%5D.2014.DVDRip.x264.HORiZON-ArtSub&amp;tr=udp%3A%2F%2Ftracker.openbittorrent.com%3A80&amp;tr=udp%3A%2F%2Fopen.demonii.com%3A1337&amp;tr=udp%3A%2F%2Ftracker.coppersurfer.tk%3A6969&amp;tr=udp%3A%2F%2Fexodus.desync.com%3A6969","seeders":61,"leechers":10,"uploader":"lletaif","files":-1,"time":1415318708,"description":"Title:\nLa chambre bleue Aka The Blue Room\n\n\n\nCountry:\nFrance, 2014\n\n\nLanguage:\nFrench\n\n\nNo Subtitle\n\n\nDirector:\nMathieu Amalric\n\n\n\nPlot:\nA man and a woman, secretly in love, alone in a room. They desire each other, want each other, and even bite each other. In the afterglow, they share a few sweet nothings. At least the man seemed to believe they were nothing. Now under investigation by the police and the courts, what is he accused of? \n\n\nIMDB: &lt;a href=&quot;\nhttp://www.imdb.com/title/tt3230082/?ref_=fn_al_tt_1&quot; rel=&quot;nofollow&quot; target=&quot;_NEW&quot;&gt;\nhttp://www.imdb.com/title/tt3230082/?ref_=fn_al_tt_1&lt;/a&gt;\n\n\nTrivia:\nOfficial Selection Cannes Film Festival 2014\n\n\n\nMedia Info:\n\nGeneral\nUnique ID                                : 241512765007679256662979808085577511797 (0xB5B1AAA6D27B8E1BB2E607B6547F3375)\nComplete name                            : The.Blue.Room.[La.Chambre.Bleue].2014.DVDRip.x264.HORiZON-ArtSubs.mkv\nFormat                                   : Matroska\nFormat version                           : Version 2\nFile size                                : 1.61 GiB\nDuration                                 : 1h 12mn\nOverall bit rate                         : 3 196 Kbps\nMovie name                               : LA_CHAMBRE_BLEUE.Title1\nEncoded date                             : UTC 2014-10-31 02:43:35\nWriting application                      : DVDFab 9.1.4.0\nWriting library                          : libebml v0.7.8 + libmatroska v0.8.1\n\nVideo\nID                                       : 1\nFormat                                   : AVC\nFormat/Info                              : Advanced Video Codec\nFormat profile                           : &lt;a class=&quot;__cf_email__&quot; href=&quot;/cdn-cgi/l/email-protection&quot; data-cfemail=&quot;9fd7f6f8f7dfd3abb1ae&quot;&gt;[email&amp;#160;protected]&lt;/a&gt;&lt;script cf-hash='f9e31' type=&quot;text/javascript&quot;&gt;\n/* &lt;![CDATA[ */!function(){try{var t=&quot;currentScript&quot;in document?document.currentScript:function(){for(var t=document.getElementsByTagName(&quot;script&quot;),e=t.length;e--;)if(t[e].getAttribute(&quot;cf-hash&quot;))return t[e]}();if(t&amp;&amp;t.previousSibling){var e,r,n,i,c=t.previousSibling,a=c.getAttribute(&quot;data-cfemail&quot;);if(a){for(e=&quot;&quot;,r=parseInt(a.substr(0,2),16),n=2;a.length-n;n+=2)i=parseInt(a.substr(n,2),16)^r,e+=String.fromCharCode(i);e=document.createTextNode(e),c.parentNode.replaceChild(e,c)}}}catch(u){}}();/* ]]&gt; */&lt;/script&gt;\nFormat settings, CABAC                   : Yes\nFormat settings, ReFrames                : 2 frames\nFormat settings, GOP                     : M=3, N=24\nCodec ID                                 : V_MPEG4/ISO/AVC\nDuration                                 : 1h 12mn\nBit rate                                 : 2 684 Kbps\nWidth                                    : 720 pixels\nHeight                                   : 540 pixels\nDisplay aspect ratio                     : 4:3\nFrame rate mode                          : Constant\nFrame rate                               : 25.000 fps\nColor space                              : YUV\nChroma subsampling                       : 4:2:0\nBit depth                                : 8 bits\nScan type                                : Progressive\nBits/(Pixel*Frame)                       : 0.276\nStream size                              : 1.35 GiB (84%)\nWriting library                          : x264 core\nDefault                                  : Yes\nForced                                   : No\nColor primaries                          : BT.601 NTSC\nTransfer characteristics                 : BT.709\nMatrix coefficients                      : BT.601\n\nAudio\nID                                       : 2\nFormat                                   : AC-3\nFormat/Info                              : Audio Coding 3\nMode extension                           : CM (complete main)\nFormat settings, Endianness              : Big\nCodec ID                                 : A_AC3\nDuration                                 : 1h 12mn\nBit rate mode                            : Constant\nBit rate                                 : 448 Kbps\nChannel(s)                               : 6 channels\nChannel positions                        : Front: L C R, Side: L R, LFE\nSampling rate                            : 48.0 KHz\nBit depth                                : 16 bits\nCompression mode                         : Lossy\nStream size                              : 231 MiB (14%)\nLanguage                                 : French\nDefault                                  : Yes\nForced                                   : No\n\nMenu\n00:05:03.000                             : en:(01)00:05:03:000\n00:13:12.000                             : en:(02)00:13:12:000\n00:19:47.000                             : en:(03)00:19:47:000\n00:24:03.000                             : en:(04)00:24:03:000\n00:30:30.000                             : en:(05)00:30:30:000\n00:36:45.000                             : en:(06)00:36:45:000\n00:41:25.000                             : en:(07)00:41:25:000\n00:47:42.000                             : en:(08)00:47:42:000\n00:51:03.000                             : en:(09)00:51:03:000\n00:59:03.000                             : en:(10)00:59:03:000\n01:09:19.000                             : en:(11)01:09:19:000\n01:11:57.000                             : en:(12)01:11:57:000","torrent":{"xt":"urn:btih:1d6a310709fa2e1fa4af61220989fd3e027de58e","amp;dn":"The.Blue.Room.%5BLa.Chambre.Bleue%5D.2014.DVDRip.x264.HORiZON-ArtSub","amp;tr":["udp%3A%2F%2Ftracker.openbittorrent.com%3A80","udp%3A%2F%2Fopen.demonii.com%3A1337","udp%3A%2F%2Ftracker.coppersurfer.tk%3A6969","udp%3A%2F%2Fexodus.desync.com%3A6969"],"infoHash":"1d6a310709fa2e1fa4af61220989fd3e027de58e","infoHashBuffer":{"type":"Buffer","data":[29,106,49,7,9,250,46,31,164,175,97,34,9,137,253,62,2,125,229,142]},"announce":[],"urlList":[]}}